<svg width="29" height="29" viewBox="0 0 29 29" fill="none" xmlns="http://www.w3.org/2000/svg">
<path d="M27 10.1418C27.0043 12.279 26.2633 14.3349 24.9325 15.878C21.8812 19.3933 18.9211 23.0587 15.7573 26.4448C15.0311 27.2087 13.8798 27.1809 13.1861 26.3823L4.06721 15.8794C1.31093 12.7043 1.31093 7.57925 4.06721 4.40559C4.71865 3.64585 5.50215 3.04102 6.37023 2.62775C7.2383 2.21448 8.17287 2.00139 9.11727 2.00139C10.0617 2.00139 10.9962 2.21448 11.8643 2.62775C12.7324 3.04102 13.5159 3.64585 14.1673 4.40559L14.4998 4.78615L14.8311 4.40559C15.4833 3.64689 16.2669 3.04265 17.1348 2.62924C18.0027 2.21582 18.9369 2.00178 19.8811 2C21.7812 2 23.5974 2.86668 24.9312 4.40559C26.2625 5.94845 27.004 8.00441 27 10.1418Z" stroke="#6560EA" stroke-width="3" stroke-linejoin="round"/>
</svg>
