<svg width="128" height="128" viewBox="0 0 128 128" fill="none" xmlns="http://www.w3.org/2000/svg">
<path d="M82.756 31.4C82.756 37.17 78.076 41.85 72.306 41.85C66.536 41.85 61.856 37.17 61.856 31.4C61.856 25.63 66.536 20.95 72.306 20.95C78.076 20.95 82.756 25.63 82.756 31.4Z" fill="#5993CD"/>
<path d="M57.046 88.2299L49.116 45.2699H65.926L72.306 58.8599L57.046 88.2299Z" fill="#5993CD"/>
<path d="M87.5659 88.2299L95.4959 45.2699H78.6859L72.3059 58.8599L87.5659 88.2299Z" fill="#5993CD"/>
<path d="M65.8559 31.4C65.8559 37.17 61.1759 41.85 55.4059 41.85C49.6359 41.85 44.9659 37.17 44.9659 31.4C44.9659 25.63 49.6459 20.95 55.4059 20.95C61.1659 20.95 65.8559 25.63 65.8559 31.4Z" fill="#EB5D66"/>
<path d="M40.1559 88.2299L32.2159 45.2699H49.0259L55.4059 58.8599L40.1559 88.2299Z" fill="#EB5D66"/>
<path d="M70.6659 88.2299L78.6059 45.2699H61.7859L55.4059 58.8599L70.6659 88.2299Z" fill="#EB5D66"/>
<path d="M124.716 55.17C124.586 56.66 124.526 58.08 124.316 59.62C123.976 61.22 123.776 62.91 123.286 64.41C122.756 65.9 122.426 67.46 121.706 68.87C121.066 70.31 120.476 71.77 119.626 73.09L118.446 75.12C118.036 75.78 117.546 76.39 117.096 77.03L115.726 78.91L114.186 80.66C113.666 81.23 113.176 81.83 112.636 82.38L110.956 83.97C109.866 85.06 108.656 86 107.436 86.94C106.266 87.93 104.986 88.76 103.706 89.59C102.456 90.47 101.126 91.2 99.796 91.93C99.126 92.29 98.476 92.68 97.796 93.02L95.726 93.97L93.666 94.91L91.546 95.71C90.136 96.23 88.726 96.76 87.256 97.13C85.806 97.52 84.386 98.01 82.896 98.28C81.426 98.57 79.976 98.94 78.486 99.16L74.046 99.78L74.656 99.37L63.946 117.92L63.226 119.17L62.506 117.92L51.796 99.37L52.406 99.78C47.536 99.07 42.696 98.02 38.006 96.42C33.346 94.77 28.836 92.67 24.606 90.05C20.416 87.37 16.546 84.16 13.216 80.42C9.89598 76.68 7.09598 72.37 5.32598 67.61C3.54598 62.84 2.73598 57.7 3.07598 52.61C3.14598 51.39 3.16598 50.2 3.46598 48.89C3.73598 47.62 3.89598 46.3 4.26598 45.07L5.45598 41.44C5.91598 40.25 6.50598 39.12 7.03598 37.97C9.37598 33.46 12.396 29.29 16.076 25.81C16.926 24.87 17.966 24.14 18.906 23.29C19.856 22.46 20.826 21.64 21.886 20.95L24.986 18.78L28.246 16.88C29.316 16.21 30.466 15.69 31.596 15.16C32.736 14.64 33.856 14.04 35.026 13.59C37.386 12.72 39.696 11.73 42.136 11.12C46.936 9.6 51.926 8.87 56.906 8.3L60.666 8.11L62.546 8.02L63.016 8H63.336H63.566L64.476 8.03C66.926 8.12 69.306 8.09 71.886 8.44C73.156 8.58 74.436 8.69 75.686 8.87L79.406 9.56L81.266 9.91L83.096 10.4L86.756 11.39L90.326 12.65L92.116 13.29L93.856 14.06L97.326 15.63L100.656 17.49C105.026 20.08 109.236 23.09 112.766 26.87C113.216 27.33 113.686 27.78 114.116 28.25L115.346 29.76C116.126 30.79 117.056 31.72 117.716 32.84L119.836 36.13C120.436 37.3 120.986 38.49 121.546 39.67C123.646 44.48 124.706 49.75 124.726 55.02V55.18L124.716 55.17ZM119.186 55.01C119.046 50.51 117.986 46.12 116.226 41.99C114.486 37.84 111.766 34.1 108.676 30.75C105.596 27.34 101.846 24.55 97.896 22.11L94.876 20.35L91.706 18.85L90.116 18.1L88.476 17.48L85.186 16.25L81.796 15.27L80.106 14.78L78.376 14.42L74.916 13.71C73.766 13.53 72.616 13.41 71.466 13.26C69.226 12.89 66.716 12.87 64.296 12.73L63.386 12.69H63.156C63.266 12.69 63.056 12.69 63.026 12.69H62.586L60.816 12.75L57.266 12.86C52.576 13.32 47.856 13.91 43.316 15.26C41.006 15.79 38.816 16.69 36.586 17.46C35.476 17.86 34.426 18.4 33.346 18.87C32.266 19.35 31.186 19.82 30.176 20.43L27.086 22.15L24.156 24.12C23.156 24.75 22.246 25.49 21.346 26.24C20.466 27.01 19.476 27.68 18.676 28.53C15.206 31.69 12.366 35.48 10.156 39.56C9.65598 40.61 9.08598 41.63 8.64598 42.71L7.49598 46C7.13598 47.1 7.00598 48.21 6.73598 49.31C6.43598 50.37 6.38598 51.62 6.29598 52.84C5.89598 57.47 6.54598 62.17 8.10598 66.58C9.66598 71 12.186 75.06 15.236 78.67C18.296 82.27 21.916 85.42 25.886 88.09C29.896 90.69 34.206 92.82 38.696 94.53C43.206 96.19 47.906 97.31 52.656 98.11L53.066 98.18L53.266 98.52L63.976 117.07H62.526L73.236 98.52L73.426 98.2L73.846 98.11L78.126 97.2C79.546 96.89 80.926 96.42 82.326 96.04C83.736 95.69 85.076 95.11 86.436 94.63C87.816 94.17 89.126 93.56 90.446 92.97L92.426 92.09L94.336 91.09L96.236 90.08C96.866 89.72 97.456 89.32 98.066 88.95C99.286 88.2 100.496 87.44 101.616 86.55C102.766 85.7 103.916 84.86 104.956 83.89C106.036 82.96 107.106 82.03 108.036 80.97L109.506 79.45C109.976 78.93 110.396 78.36 110.846 77.82L112.176 76.19L113.336 74.44C113.706 73.85 114.126 73.29 114.466 72.69L115.436 70.85C116.146 69.65 116.596 68.34 117.106 67.06C117.696 65.81 117.906 64.43 118.306 63.13C118.676 61.81 118.746 60.53 118.996 59.25C119.126 57.87 119.126 56.33 119.206 54.87V55.03L119.186 55.01Z" fill="#5993CD"/>
</svg>
